# xmcd
#
# Track frame offsets: 
#        150
#        13521
#        36435
#        49917
#        65341
#
# Disc length: 1192 seconds
#
# Revision: 0
# Processed by: cddbd v1.5.2PL0 Copyright (c) Steve Scherf et al.
# Submitted via: ExactAudioCopy v1.0b3
#
DISCID=3d04a605
DTITLE=Like Spinning - Like Spinning EP
DYEAR=2013
DGENRE=Folk
TTITLE0=Crush (And Anxiety)
TTITLE1=Where Is My Energy
TTITLE2=Volcano
TTITLE3=Don't Tell Me
TTITLE4=How Could I Have Known?
EXTD=
EXTT0=
EXTT1=
EXTT2=
EXTT3=
EXTT4=
PLAYORDER=
